# xmcd
#
# Track frame offsets: 
#        150
#        12415
#        23030
#        35952
#        50175
#        69262
#        82572
#        94130
#        112767
#        126660
#        139245
#        156930
#        167252
#        191830
#        205902
#        217682
#        230617
#        252010
#        269862
#        282295
#
# Disc length: 3949 seconds
#
# Revision: 3
# Processed by: cddbd v1.5.2PL0 Copyright (c) Steve Scherf et al.
# Submitted via: ExactAudioCopy v1.0b1
#
DISCID=1f0f6b14
DTITLE=Various Artist - Choice Picks
DYEAR=1999
DGENRE=Bluegrass
TTITLE0=Jerry Douglas - Shoulder To Shoulder
TTITLE1=Del McCoury - Cheek To Cheek With The Blues
TTITLE2=Nashville Bluegrass Band - Blue Train
TTITLE3=Hot Rize - Colleen Malone
TTITLE4=Lynn Morris - Mama's Hand
TTITLE5=Alison Krauss - I've Got That Old Feeling
TTITLE6=Ronnie Bowman - Cold Virginia Night
TTITLE7=Ricky Skaggs and Kentucky Thunder - Get Up John
TTITLE8=Peter Rowan, David Grisman, Herb Pedersen, Vassar Clements and T
TTITLE8=odd Phillips - Travelin´ This Lonesome Road
TTITLE9=Doyle Lawson and Quicksilver - Little Mountain Church
TTITLE10=The Lonesome River Band - Hobo Blues
TTITLE11=The Bluegrass Album Band - One Tear
TTITLE12=Laurie Lewis - Who Will Watch The Home Place
TTITLE13=Blue Highway - Lonesome Pine
TTITLE14=Scott Vestal, Aubrey Haynie, Adam Steffey, Wayne Benson, Barr
TTITLE14=y Bales and Clay Jones - Big Sandy River
TTITLE15=Claire Lynch - Peewee and Fern
TTITLE16=Longview - Lonesome Old Home
TTITLE17=lllrd Tyme Out - Across The Miles
TTITLE18=Larry Cordle, Glen Duncan and Lonesome Standard Time - Lonesome
TTITLE18=Standard Time
TTITLE19=Vince Gill (featuring Alison Krauss and Union Station) - High L
TTITLE19=onesome Sound
EXTD=
EXTT0=
EXTT1=
EXTT2=
EXTT3=
EXTT4=
EXTT5=
EXTT6=
EXTT7=
EXTT8=
EXTT9=
EXTT10=
EXTT11=
EXTT12=
EXTT13=
EXTT14=
EXTT15=
EXTT16=
EXTT17=
EXTT18=
EXTT19=
PLAYORDER=
